<svg xmlns="http://www.w3.org/2000/svg" viewBox="0 0 600 700" width="100%" height="100%">
  <defs>
    <!-- Background Gradient -->
    <radialGradient id="bgGrad" cx="50%" cy="50%" r="70%">
      <stop offset="0%" stop-color="#ffffff"/>
      <stop offset="100%" stop-color="#e0e0e0"/>
    </radialGradient>

    <!-- Red Lid Gradients -->
    <linearGradient id="redLid" x1="0%" y1="0%" x2="100%" y2="0%">
      <stop offset="0%" stop-color="#990000"/>
      <stop offset="25%" stop-color="#d32f2f"/>
      <stop offset="50%" stop-color="#ff5252"/>
      <stop offset="75%" stop-color="#d32f2f"/>
      <stop offset="100%" stop-color="#990000"/>
    </linearGradient>

    <!-- Label Gradients -->
    <linearGradient id="labelBg" x1="0%" y1="0%" x2="100%" y2="0%">
      <stop offset="0%" stop-color="#7f0000"/>
      <stop offset="30%" stop-color="#b71c1c"/>
      <stop offset="70%" stop-color="#d32f2f"/>
      <stop offset="100%" stop-color="#7f0000"/>
    </linearGradient>

    <!-- Label Wave Highlight -->
    <radialGradient id="labelWave" cx="30%" cy="50%" r="60%">
      <stop offset="0%" stop-color="#ff7961" stop-opacity="0.8"/>
      <stop offset="50%" stop-color="#f44336" stop-opacity="0.3"/>
      <stop offset="100%" stop-color="#b71c1c" stop-opacity="0"/>
    </radialGradient>

    <!-- Glass Bottle Shading -->
    <linearGradient id="glassShade" x1="0%" y1="0%" x2="100%" y2="0%">
      <stop offset="0%" stop-color="#000000" stop-opacity="0.7"/>
      <stop offset="10%" stop-color="#3e2723" stop-opacity="0.4"/>
      <stop offset="25%" stop-color="#ffffff" stop-opacity="0.15"/>
      <stop offset="50%" stop-color="#ffffff" stop-opacity="0"/>
      <stop offset="75%" stop-color="#ffffff" stop-opacity="0.1"/>
      <stop offset="90%" stop-color="#3e2723" stop-opacity="0.4"/>
      <stop offset="100%" stop-color="#000000" stop-opacity="0.7"/>
    </linearGradient>

    <!-- Coffee Powder Texture Pattern -->
    <pattern id="coffeePowder" width="30" height="30" patternUnits="userSpaceOnUse">
      <rect width="30" height="30" fill="#2d1508"/>
      <circle cx="3" cy="5" r="1.5" fill="#4e2711"/>
      <circle cx="12" cy="7" r="1.2" fill="#1b0a03"/>
      <circle cx="22" cy="12" r="1.8" fill="#5c3116"/>
      <circle cx="7" cy="18" r="1" fill="#1b0a03"/>
      <circle cx="15" cy="22" r="2" fill="#4e2711"/>
      <circle cx="27" cy="25" r="1.3" fill="#3d1d0c"/>
      <circle cx="5" cy="28" r="1.7" fill="#5c3116"/>
      <circle cx="18" cy="15" r="1" fill="#1b0a03"/>
    </pattern>

    <!-- Specular Highlights -->
    <linearGradient id="highlightGrad" x1="0%" y1="0%" x2="100%" y2="0%">
      <stop offset="0%" stop-color="#ffffff" stop-opacity="0"/>
      <stop offset="10%" stop-color="#ffffff" stop-opacity="0.4"/>
      <stop offset="20%" stop-color="#ffffff" stop-opacity="0"/>
      <stop offset="85%" stop-color="#ffffff" stop-opacity="0"/>
      <stop offset="92%" stop-color="#ffffff" stop-opacity="0.3"/>
      <stop offset="100%" stop-color="#ffffff" stop-opacity="0"/>
    </linearGradient>

    <!-- Drop Shadows -->
    <filter id="jarShadow" x="-10%" y="-10%" width="120%" height="120%">
      <feDropShadow dx="0" dy="12" stdDeviation="15" flood-color="#000000" flood-opacity="0.3"/>
    </filter>
  </defs>

  <!-- Background -->
  <rect width="600" height="700" fill="url(#bgGrad)"/>

  <!-- Shadow under the bottle -->
  <ellipse cx="300" cy="595" rx="150" ry="20" fill="#000000" opacity="0.3" filter="blur(10px)"/>

  <!-- ==================== BOTTLE GROUP ==================== -->
  <g filter="url(#jarShadow)">
    
    <!-- Outer Glass Bottle Shape Base -->
    <!-- The distinctive flared-in-the-middle silhouette of the instant coffee jar -->
    <path d="M 215,225 
             C 215,225 210,235 208,245 
             L 205,330 
             C 205,330 203,380 208,420 
             C 213,460 216,540 220,560 
             C 225,580 240,590 300,590 
             C 360,590 375,580 380,560 
             C 384,540 387,460 392,420 
             C 397,380 395,330 395,330 
             L 392,245 
             C 390,235 385,225 385,225 
             Z" 
          fill="url(#coffeePowder)"/>

    <!-- Darker Coffee shading inside the jar -->
    <path d="M 215,225 C 215,225 210,235 208,245 L 205,330 C 205,330 203,380 208,420 C 213,460 216,540 220,560 C 225,580 240,590 300,590 C 360,590 375,580 380,560 C 384,540 387,460 392,420 C 397,380 395,330 395,330 L 392,245 C 390,235 385,225 385,225 Z" 
          fill="url(#glassShade)" opacity="0.85"/>

    <!-- Bottom thick glass base highlight -->
    <path d="M 220,560 C 225,580 240,590 300,590 C 360,590 375,580 380,560 C 375,570 360,578 300,578 C 240,578 225,570 220,560 Z" fill="#ffffff" opacity="0.25"/>

    <!-- ==================== PREMIUM RED LABEL ==================== -->
    <g>
      <!-- Label Background (Wrapped around the body) -->
      <path d="M 206,310 
               C 206,310 204,350 206,390 
               C 208,430 211,460 213,475 
               L 387,475 
               C 389,460 392,430 394,390 
               C 396,350 394,310 394,310 
               Z" 
            fill="url(#labelBg)"/>

      <!-- Glowing Sweep / Design wave on the label -->
      <path d="M 206,310 C 206,310 204,350 206,390 C 208,430 211,460 213,475 L 387,475 C 389,460 392,430 394,390 C 396,350 394,310 394,310 Z" 
            fill="url(#labelWave)" opacity="0.9" style="mix-blend-mode: screen;"/>

      <!-- Brand Name "BRAVE PRESSO" (White bold modern font with custom touch) -->
      <text x="300" y="365" font-family="'Inter', sans-serif" font-size="25" font-weight="900" fill="#ffffff" text-anchor="middle" letter-spacing="1">BRAVE PRESSO</text>
      
      <!-- Variant "CLASSIC" (Clean white and gold styled text) -->
      <text x="300" y="405" font-family="'Inter', sans-serif" font-size="21" font-weight="700" fill="#ffffff" text-anchor="middle" letter-spacing="4">CLASSIC</text>
      
      <!-- Subtitle -->
      <text x="300" y="425" font-family="'Inter', sans-serif" font-size="7.5" font-weight="600" fill="#ffcdd2" text-anchor="middle" letter-spacing="1.5">SOLUBLE COFFEE POWDER</text>

      <!-- Veg Mark (Green Circle inside Green Square) -->
      <rect x="220" y="442" width="16" height="16" fill="#ffffff" stroke="#25D366" stroke-width="1.5" rx="1"/>
      <circle cx="228" cy="450" r="5" fill="#25D366"/>

      <!-- "100% Pure Coffee" Badge on label -->
      <rect x="245" y="442" width="55" height="16" fill="none" stroke="#ffffff" stroke-width="0.8" rx="2" opacity="0.8"/>
      <text x="272.5" y="452.5" font-family="'Inter', sans-serif" font-size="5.5" font-weight="700" fill="#ffffff" text-anchor="middle">100% PURE COFFEE</text>

      <!-- Coffee Cup & Beans Graphics on Right of Label -->
      <!-- Red Coffee Cup from Above -->
      <circle cx="355" cy="435" r="18" fill="#ffffff" opacity="0.1"/>
      <circle cx="355" cy="435" r="15" fill="#b71c1c"/>
      <circle cx="355" cy="435" r="12" fill="#3e2723"/> <!-- Coffee inside -->
      <!-- Coffee foam reflection swirl -->
      <path d="M 347,432 C 347,432 350,426 357,428 C 362,429 364,435 362,440" stroke="#ffffff" stroke-width="1.2" fill="none" opacity="0.4" stroke-linecap="round"/>
      
      <!-- Coffee Beans next to cup -->
      <!-- Bean 1 -->
      <ellipse cx="334" cy="445" rx="4" ry="2.5" fill="#3e2723" transform="rotate(-30 334 445)"/>
      <line x1="331" y1="446.5" x2="337" y2="443.5" stroke="#1b0a03" stroke-width="0.5"/>
      <!-- Bean 2 -->
      <ellipse cx="338" cy="451" rx="3.5" ry="2.2" fill="#2d1508" transform="rotate(20 338 451)"/>
      <line x1="335" y1="450" x2="341" y2="452" stroke="#1b0a03" stroke-width="0.5"/>
    </g>

    <!-- Glass Reflections over the label and bottle body -->
    <path d="M 215,225 C 215,225 210,235 208,245 L 205,330 C 205,330 203,380 208,420 C 213,460 216,540 220,560 C 225,580 240,590 300,590 C 360,590 375,580 380,560 C 384,540 387,460 392,420 C 397,380 395,330 395,330 L 392,245 C 390,235 385,225 385,225 Z" 
          fill="url(#highlightGrad)"/>

    <!-- High-intensity vertical reflection reflection line -->
    <path d="M 218,250 L 213,540" stroke="#ffffff" stroke-width="4" stroke-linecap="round" opacity="0.2"/>
    <path d="M 224,250 L 218,540" stroke="#ffffff" stroke-width="1.5" stroke-linecap="round" opacity="0.1"/>

    <!-- ==================== STUNNING RED LID ==================== -->
    <g>
      <!-- Lid Base Neck -->
      <ellipse cx="300" cy="225" rx="85" ry="12" fill="#1b0a03" opacity="0.5"/>
      
      <!-- Lid Main body -->
      <!-- Curves outward and upward exactly like the Nescafe Classic lid -->
      <path d="M 210,225
               C 210,225 202,185 202,150
               C 202,120 220,110 300,110
               C 380,110 398,120 398,150
               C 398,185 390,225 390,225
               Z" 
            fill="url(#redLid)"/>

      <!-- Lid Top Rim curve -->
      <ellipse cx="300" cy="113" rx="96" ry="10" fill="#ff5252" opacity="0.4" />
      <ellipse cx="300" cy="110" rx="98" ry="9" fill="#ff7961" opacity="0.2" />

      <!-- Shadow under the lid on the bottle shoulder -->
      <path d="M 210,225 C 240,238 360,238 390,225 C 360,228 240,228 210,225 Z" fill="#000000" opacity="0.6"/>

      <!-- Highlight on left curve of lid -->
      <path d="M 214,222 C 208,190 208,155 214,124" fill="none" stroke="#ffffff" stroke-width="4" stroke-linecap="round" opacity="0.25" filter="blur(1px)"/>
      
      <!-- Light reflection on the top center of lid -->
      <ellipse cx="300" cy="125" rx="40" ry="8" fill="#ffffff" opacity="0.15" filter="blur(2px)"/>
    </g>

  </g>
</svg>
